<?xml version="1.0" encoding="UTF-8" standalone="no"?>
<!-- Created with Inkscape (http://www.inkscape.org/) -->

<svg
   viewBox="0 0 110.12244 100.46793"
   version="1.1"
   id="svg1224">
  <defs
     id="defs1221" />
  <g
     id="layer1"
     transform="translate(-18.572235,-12.830095)">
    <path
       id="path836"
       style="stroke-width:0.264583"
       d="m 36.549069,12.830799 c -13.519605,-0.0068 -13.507243,-0.0082 -15.741676,2.22622 -2.426772,2.426769 -2.231387,-1.772433 -2.231387,48.038927 0,49.817544 -0.195837,45.611694 2.235004,48.042544 0.978201,0.9782 1.785736,1.51728 2.690275,1.79627 1.13419,0.34992 7.317899,0.39274 50.504928,0.34934 l 49.212497,-0.0496 1.25367,-0.61754 c 1.65639,-0.81575 3.27729,-2.68995 3.77445,-4.36407 0.59712,-2.01074 0.59712,-78.778136 0,-80.788866 -0.52368,-1.763432 -2.12187,-3.548907 -3.89382,-4.349607 l -1.39888,-0.632003 -33.052248,-0.07131 C 64.209624,22.355774 56.762159,22.267409 56.454829,22.014229 56.237379,21.835098 55.186562,20.367785 54.119572,18.753446 51.851643,15.322136 50.645257,14.00354 49.156568,13.327422 48.158906,12.874331 47.200541,12.83581 36.549069,12.830812 Z m 5.598107,4.785754 c 4.677942,-0.0011 5.232773,0.0964 5.59449,0.423746 0.285232,0.25812 1.390246,1.779855 2.455664,3.381706 2.313811,3.478749 2.85114,4.120004 4.200261,5.011063 l 1.028877,0.679545 H 88.42342 c 23.46695,0 33.23942,0.08495 33.83773,0.293523 1.28638,0.44844 1.61902,1.377334 1.61902,4.522203 v 2.724899 H 73.598485 23.316802 l 0.077,-7.864118 c 0.07618,-7.78148 0.08294,-7.870727 0.67903,-8.466667 l 0.602546,-0.602548 11.273731,-0.07442 c 2.621114,-0.0173 4.638757,-0.02861 6.198071,-0.02894 z m 31.478183,21.675161 c 48.694141,-0.0084 48.833611,-0.0069 49.407831,0.528135 0.31672,0.295058 0.64022,0.801087 0.71882,1.124479 0.0783,0.323398 0.10975,15.378382 0.0692,33.455321 l -0.0734,32.867241 -0.60307,0.60255 -0.60254,0.60255 -48.609955,0.0636 c -38.657188,0.0504 -48.743845,-0.005 -49.265725,-0.26975 -0.360934,-0.18326 -0.805948,-0.62867 -0.988571,-0.98961 -0.464606,-0.91823 -0.49579,-65.882822 -0.03204,-66.753542 0.169291,-0.317851 0.496712,-0.722934 0.727604,-0.900205 0.326413,-0.250629 11.283008,-0.323728 49.251774,-0.330729 z m 1.746144,5.065842 C 62.760501,44.194261 52.476859,49.6459 47.660019,59.185589 c -1.318832,2.611922 -2.044978,4.812414 -2.594158,7.860504 -1.307933,7.259381 -0.247822,14.262623 3.15123,20.812683 1.741038,3.35502 3.610247,5.873811 6.294705,8.483719 1.99118,1.9359 3.342499,3.013935 5.407937,4.314465 3.979934,2.50601 8.516091,4.06809 13.15217,4.52892 5.95702,0.59213 10.714697,-0.78513 14.158825,-4.09897 2.481951,-2.388081 3.786434,-5.517033 3.798734,-9.112623 0.0061,-1.77569 -0.226986,-2.743845 -1.124995,-4.675684 -0.82143,-1.76711 -1.075105,-2.5864 -1.082103,-3.488159 -0.01037,-1.493059 0.705686,-2.275123 4.577498,-5.000212 4.21627,-2.967529 5.795121,-4.585726 7.366988,-7.549927 1.81287,-3.418629 2.47226,-8.170069 1.58492,-11.422558 -0.75763,-2.777019 -2.500229,-5.51263 -5.048788,-7.92613 -4.634759,-4.389131 -11.04677,-6.852957 -19.379179,-7.446058 -0.860491,-0.06125 -1.711565,-0.09712 -2.5523,-0.108003 z m -0.128156,2.426724 c 5.482468,0.02535 11.015633,1.131311 15.066264,3.190502 2.671529,1.358122 5.287703,3.437467 6.908622,5.490104 0.96307,1.219563 2.273729,3.66264 2.60966,4.86482 0.606907,2.17197 0.340627,5.817481 -0.615985,8.434112 -1.017638,2.783589 -2.828335,4.913511 -6.151044,7.236251 -3.797961,2.654948 -4.359642,3.078821 -5.049821,3.808553 -2.070859,2.189509 -2.219151,4.360309 -0.56379,8.252208 0.901999,2.120651 1.033909,2.631205 1.020609,3.958415 -0.01429,1.430071 -0.210844,2.532788 -0.674894,3.786849 -1.205169,3.25691 -4.316389,5.786706 -8.237741,6.698296 -1.395638,0.32445 -4.581313,0.45685 -6.285402,0.26097 -5.512491,-0.63369 -10.473275,-2.71976 -14.819767,-6.231146 -3.140279,-2.536909 -5.75944,-5.719823 -7.694621,-9.350332 -3.451222,-6.47474 -4.452252,-13.179819 -3.041676,-20.377568 1.856274,-9.472009 8.333009,-16.24552 18.046443,-18.87275 2.922206,-0.790379 6.19366,-1.164497 9.483143,-1.149284 z m -0.471805,3.679362 c -0.202872,0.0064 -0.402725,0.02775 -0.597382,0.06459 -2.815508,0.532882 -4.797364,2.944114 -5.015714,6.101954 -0.23685,3.42533 1.909056,6.565809 4.878255,7.139098 0.941912,0.181872 1.940378,0.02484 3.052527,-0.480589 3.923451,-1.783022 4.880901,-7.696465 1.782321,-11.006563 -1.103498,-1.178801 -2.679907,-1.863233 -4.100007,-1.818495 z m 0.04134,2.431375 c 1.303779,-0.04709 2.587149,1.001798 3.13314,2.766759 0.626981,2.026758 -0.303607,4.772303 -1.846397,5.447212 -1.772992,0.77561 -3.408125,-0.147889 -4.129463,-2.332159 -0.675082,-2.044118 0.0058,-4.426609 1.559075,-5.455481 0.412607,-0.273293 0.849051,-0.410633 1.283645,-0.426331 z m 14.351061,3.701069 c -0.608674,0 -1.217576,0.101158 -1.790071,0.302823 -1.648581,0.58075 -3.312353,2.555293 -3.803904,4.514453 -0.25196,1.00434 -0.214606,2.968496 0.07441,3.911905 0.701281,2.28914 2.427095,4.028104 4.480865,4.514453 0.29565,0.0695 0.921705,0.0991 1.391647,0.06459 2.34796,-0.172598 4.466164,-2.080363 5.178494,-4.664313 0.27528,-0.99867 0.304956,-2.850592 0.06149,-3.82664 -0.48786,-1.955871 -2.154264,-3.933512 -3.803385,-4.514453 -0.572495,-0.201665 -1.180878,-0.302823 -1.789554,-0.302823 z m -28.494384,0.0021 c -1.540563,0.0038 -2.738485,0.546497 -3.904155,1.768367 -1.252482,1.312881 -1.820045,2.829274 -1.820045,4.864304 0,0.705088 0.0921,1.608105 0.20464,2.006594 0.624906,2.212711 2.364139,4.031941 4.364074,4.564579 1.529474,0.407352 3.586472,-0.193009 4.849318,-1.414899 1.362736,-1.31853 2.088761,-3.111545 2.088761,-5.156274 0,-2.186882 -0.741942,-3.891643 -2.287199,-5.253943 -1.104294,-0.97355 -2.139973,-1.381728 -3.495394,-1.378728 z m -0.02842,2.418456 c 0.847016,0 1.39351,0.251526 2.062406,0.949296 2.046735,2.135082 1.354376,6.367748 -1.206129,7.374228 -0.684845,0.269209 -1.052981,0.260374 -1.760099,-0.04237 -1.404913,-0.601499 -2.250024,-2.162607 -2.241724,-4.140317 0.0095,-2.286399 1.418341,-4.140832 3.145546,-4.140832 z m 28.522806,0 c 0.837951,0 1.406075,0.27436 2.060855,0.995288 1.946571,2.14321 1.311328,6.23792 -1.130162,7.285861 -0.315021,0.135199 -0.733814,0.245464 -0.930693,0.245464 -0.581261,0 -1.466133,-0.452302 -2.023132,-1.034563 -1.570439,-1.64161 -1.588764,-4.789022 -0.03772,-6.496762 0.65478,-0.720928 1.222915,-0.995288 2.060856,-0.995288 z M 59.380748,72.474753 c -1.050526,0 -1.331463,0.05342 -2.054654,0.388088 -1.586529,0.734171 -2.941986,2.383324 -3.460771,4.211113 -0.304686,1.073531 -0.303432,3.064024 0.0026,4.056084 0.663477,2.150909 1.910604,3.585289 3.755842,4.318598 0.694376,0.276841 1.009203,0.320738 1.971972,0.281638 0.97074,-0.03939 1.28316,-0.115522 2.047938,-0.499713 4.017119,-2.018027 4.782794,-8.004572 1.437122,-11.234973 -1.163291,-1.123198 -2.130793,-1.520835 -3.700034,-1.520835 z m 0.09767,2.38125 c 0.750303,0.01193 1.507995,0.377486 2.125451,1.17874 1.713563,2.223629 1.09711,6.087218 -1.130165,7.083287 -0.27045,0.120949 -0.772171,0.21694 -1.114661,0.213939 -1.797076,-0.0172 -3.169623,-1.882367 -3.158463,-4.291727 0.01169,-2.524828 1.627166,-4.210475 3.277838,-4.184239 z m 16.098242,9.788548 c -2.7857,-0.0053 -5.442815,1.374762 -6.804753,3.81734 -2.422231,4.344149 0.145902,9.559435 5.214152,10.589016 1.782469,0.36209 3.230811,0.183584 4.988843,-0.615466 3.19754,-1.453319 4.893768,-4.757824 4.162017,-8.107515 -0.409998,-1.87691 -2.008989,-3.895924 -3.791497,-4.787305 -1.209855,-0.605015 -2.502535,-0.893654 -3.768762,-0.89607 z m -0.07545,2.408121 c 1.943219,-0.02379 3.880279,0.941893 4.753716,2.739885 0.47748,0.98294 0.592177,2.496899 0.268716,3.54552 -0.44613,1.44626 -1.532265,2.561868 -3.034956,3.118157 -0.77053,0.285189 -2.224397,0.402365 -3.022039,0.243395 -1.517298,-0.302379 -2.883323,-1.321324 -3.590994,-2.679422 -0.3572,-0.68562 -0.397123,-0.901639 -0.389125,-2.11305 0.01024,-1.633579 0.27309,-2.286595 1.35599,-3.365685 0.996635,-0.993135 2.329121,-1.472522 3.658692,-1.4888 z" />
  </g>
</svg>